<?xml version="1.0" encoding="UTF-8"?>
<!DOCTYPE svg PUBLIC "-//W3C//DTD SVG 1.1//EN" "http://www.w3.org/Graphics/SVG/1.1/DTD/svg11.dtd">
<!-- Creator: CorelDRAW X6 -->
<svg xmlns="http://www.w3.org/2000/svg" xml:space="preserve" width="100%" height="100%" version="1.1" style="shape-rendering:geometricPrecision; text-rendering:geometricPrecision; image-rendering:optimizeQuality; fill-rule:evenodd; clip-rule:evenodd"
viewBox="0 0 500 500"
 xmlns:xlink="http://www.w3.org/1999/xlink">
 <defs>
  <style type="text/css">
   <![CDATA[
    .fil0 {fill:#202020}
   ]]>
  </style>
 </defs>
 <g id="Layer_x0020_1">
  <metadata id="CorelCorpID_0Corel-Layer"/>
  <path class="fil0" d="M160 64l180 0c6,0 10,4 10,10l0 329c0,6 -4,11 -10,11l-180 0c-6,0 -10,-5 -10,-11l0 -329c0,-6 4,-10 10,-10zm-14 -44l208 0c18,0 34,16 34,34l0 392c0,18 -16,34 -34,34l-208 0c-18,0 -34,-16 -34,-34l0 -392c0,-18 16,-34 34,-34zm104 406c-11,0 -20,8 -20,20 0,11 9,20 20,20 11,0 20,-9 20,-20 0,-12 -9,-20 -20,-20z"/>
 </g>
</svg>
