<?xml version="1.0" encoding="iso-8859-1"?>
<!-- Generator: Adobe Illustrator 16.0.0, SVG Export Plug-In . SVG Version: 6.00 Build 0)  -->
<!DOCTYPE svg PUBLIC "-//W3C//DTD SVG 1.1//EN" "http://www.w3.org/Graphics/SVG/1.1/DTD/svg11.dtd">
<svg version="1.1" id="Capa_1" xmlns="http://www.w3.org/2000/svg" xmlns:xlink="http://www.w3.org/1999/xlink" x="0px" y="0px"
	 width="636.244px" height="636.244px" viewBox="0 0 636.244 636.244" style="enable-background:new 0 0 636.244 636.244;"
	 xml:space="preserve">
<g>
	<g>
		<g>
			<path d="M560.997,355.007L432.566,471.721c-19.926,18.077-41.048,21.268-50.451,21.715H137.384
				c-19.196,0-39.423-7.1-41.246-7.741c-5.971-2.888-12.277-6.302-18.637-10.386C7.396,430.42,28.436,344.729,31.854,332.495
				c0.078-0.203,0.117-0.389,0.185-0.603c0.161-0.593,0.292-1.001,0.292-1.001l-0.02-0.01
				c15.073-47.709,50.597-82.474,117.453-84.492c8.354,0.156,32.543,2.129,54.059,18.428c5.3,4.323,10.585,9.394,15.773,15.525
				c10.26,13.255,34.061,51.842,23.222,96.457c-8.732,29.252-21.399,41.894-38.864,53.66c-17.484,11.776-52.147,22.619-84.72,2.703
				c-18.973-12.981-33.438-35.261-30.739-64.823c2.718-29.553,33.165-50.937,60.282-44.606
				c27.136,6.321,43.118,47.009,13.862,63.297c-13.78,5.854-22.109,2.383-27.564-5.086l-0.01,0.039c0,0-7.848-7.303-17.796-2.791
				c-9.855,4.493-6.69,18.506-6.642,18.749c10.746,15.793,31.391,27.608,62.339,16.688c7.128-2.509,12.934-6.438,17.762-11.184
				h0.073c0,0,0.477-0.486,1.133-1.187c1.045-1.089,2.042-2.256,2.99-3.442c10.653-13.128,35.655-52.619-4.123-97.221
				c-23.203-18.593-95.028-38.548-125.042,41.538c-1.114,2.646-2.11,5.358-2.976,8.228c-0.141,0.408-0.292,0.729-0.428,1.138
				c0.029,0.02,0.029,0,0.049,0.02c-5.271,18.136-5.251,40.278,5.597,64.969c24.116,54.866,93.734,69.608,144.379,42.496
				c9.18-4.91,17.485-10.988,24.866-17.971l-0.044,0.059l122.383-96c0,0,8.558-7.722,21.686-7.722h179.476
				C578.2,338.339,563.06,353.073,560.997,355.007L560.997,355.007z M242.131,168.944c0.588-0.346,88.794-51.171,135.978,8.693
				c6.224,8.616,12.759,19.118,17.796,30.511c0.486,1.644,14.178,50.626-8.49,75.861c-0.224,0.219-0.389,0.477-0.612,0.686
				c-0.506,0.549-1.147,1.006-1.673,1.507c-1.983,1.857-4.084,3.715-6.438,5.484l-98.621,73.707
				c2.368-42.885-15.224-85.736-24.126-99.997c-22.794-32.98-54.938-43.901-74.626-47.538c-6.136-1.074-17.626-1.274-17.626-1.274
				L242.131,168.944L242.131,168.944z M623.429,309.58h-12.447H414.255c-7.244,0,0-6.69,0-6.69l-0.078-0.02
				c3.307-3.049,5.894-5.864,7.78-8.008c33.394-44.062,4.931-109.673,0.563-119.086c-15.607-27.452-34.59-42.54-53.641-50.227
				c-1.478-0.55-2.917-1.046-4.638-1.794c-8.587-3.166-18.604-6.2-29.67-8.48c-48.477-7.239-94.41,15.442-94.809,15.643
				c-41.913,23.927-148.814,86.825-196.542,132.408c-2.329,2.183-4.619,4.444-6.841,6.841c-1.751,1.853-3.365,3.647-4.877,5.417
				c-0.399,0.491-0.827,0.919-1.206,1.415c-1.415,1.735-2.737,3.438-3.914,5.091l0.321-0.141
				c-9.35,12.788-16.999,27.962-21.71,46.318c-15.136,47.679,1.114,154.152,90.769,187.731c3.972,1.312,21.306,6.398,47.349,6.398
				h233.684h11.854c8.509-0.33,28.901-3.111,48.496-20.577c0-0.02,0-0.02,0.029-0.039l182.733-163.41l5.231-4.678
				C651.085,310.455,623.429,309.58,623.429,309.58L623.429,309.58z"/>
		</g>
	</g>
</g>
<g>
</g>
<g>
</g>
<g>
</g>
<g>
</g>
<g>
</g>
<g>
</g>
<g>
</g>
<g>
</g>
<g>
</g>
<g>
</g>
<g>
</g>
<g>
</g>
<g>
</g>
<g>
</g>
<g>
</g>
</svg>
